<!-- FYI: https://github.com/css-modules/logos/blob/master/css-modules-logo.svg -->
<!-- NOTE: https://jakearchibald.github.io/svgomg/ -->
<svg xmlns="http://www.w3.org/2000/svg" viewBox="0 0 1000 1000">
  <path d="M169.7 474q22.8 0 35.38 12 12.58 12.02 13.97 27.3H203.2q-2.7-11.6-10.79-18.39-8-6.78-22.55-6.78-17.73 0-28.68 12.5-10.87 12.42-10.87 38.16 0 21.08 9.8 34.24 9.9 13.08 29.42 13.08 17.98 0 27.38-13.82 4.98-7.27 7.43-19.12h15.86q-2.13 18.96-14.06 31.8-14.3 15.44-38.57 15.44-20.92 0-35.14-12.67-18.7-16.75-18.7-51.73 0-26.55 14.05-43.55 15.2-18.47 41.92-18.47zm-3.27 0zm84.25 84.56q.57 10.22 4.82 16.59 8.09 11.93 28.52 11.93 9.15 0 16.67-2.61 14.54-5.07 14.54-18.15 0-9.8-6.12-13.97-6.21-4.09-19.45-7.1l-16.26-3.69q-15.94-3.6-22.56-7.92-11.44-7.52-11.44-22.47 0-16.18 11.2-26.56 11.2-10.38 31.7-10.38 18.88 0 32.04 9.15 13.24 9.07 13.24 29.1h-15.29q-1.22-9.65-5.23-14.8-7.43-9.4-25.25-9.4-14.38 0-20.67 6.05-6.3 6.05-6.3 14.06 0 8.82 7.36 12.91 4.82 2.61 21.82 6.54l16.83 3.84q12.18 2.78 18.8 7.6 11.44 8.41 11.44 24.43 0 19.94-14.55 28.52-14.46 8.58-33.66 8.58-22.4 0-35.06-11.44-12.67-11.36-12.42-30.8h15.28zM283.53 474zm78.61 84.56q.57 10.22 4.82 16.59 8.09 11.93 28.52 11.93 9.15 0 16.67-2.61 14.54-5.07 14.54-18.15 0-9.8-6.13-13.97-6.2-4.09-19.44-7.1l-16.27-3.69q-15.93-3.6-22.55-7.92-11.44-7.52-11.44-22.47 0-16.18 11.2-26.56 11.2-10.38 31.7-10.38 18.88 0 32.04 9.15 13.23 9.07 13.23 29.1h-15.28q-1.22-9.65-5.23-14.8-7.43-9.4-25.25-9.4-14.38 0-20.67 6.05-6.3 6.05-6.3 14.06 0 8.82 7.36 12.91 4.82 2.61 21.82 6.54l16.83 3.84q12.18 2.78 18.8 7.6 11.44 8.41 11.44 24.43 0 19.94-14.55 28.52-14.46 8.58-33.67 8.58-22.39 0-35.05-11.44-12.67-11.36-12.42-30.8h15.28zM394.99 474zM118.7 686.44h23.29l34.48 101.49 34.24-101.5h23.04v120.05h-15.44v-70.85q0-3.68.16-12.17t.17-18.23L184.4 806.48h-16.1l-34.5-101.25v3.68q0 4.41.17 13.48.24 9 .24 13.24v70.85H118.7V686.44zm191.78-3.26q31.79 0 47.07 20.43 11.93 15.94 11.93 40.78 0 26.88-13.65 44.7Q339.82 810 310.15 810q-27.7 0-43.55-18.3-14.14-17.66-14.14-44.62 0-24.36 12.1-41.68 15.52-22.22 45.92-22.22zm1.63 112.28q21.5 0 31.06-15.36 9.64-15.44 9.64-35.46 0-21.17-11.11-34.08-11.04-12.91-30.24-12.91-18.63 0-30.4 12.83-11.77 12.75-11.77 37.67 0 19.94 10.06 33.67 10.13 13.64 32.76 13.64zm-1.14-112.28zM434.86 792.6q8.26 0 13.57-1.72 9.48-3.19 15.52-12.26 4.82-7.27 6.95-18.63 1.22-6.78 1.22-12.58 0-22.31-8.9-34.65-8.83-12.33-28.53-12.33h-28.84v92.18h29zm-45.35-106.15h48.62q24.76 0 38.4 17.57 12.18 15.85 12.18 40.61 0 19.12-7.19 34.57-12.67 27.29-43.55 27.29H389.5V686.45zm137.84-.01v74.2q0 13.07 4.9 21.73 7.28 13.08 24.52 13.08 20.68 0 28.11-14.14 4-7.68 4-20.67v-74.2h16.51v67.41q0 22.15-5.96 34.08-10.95 21.74-41.35 21.74-30.4 0-41.27-21.74-5.96-11.93-5.96-34.08v-67.41h16.5zm30.81 0zm72.17 0h16.26v105.74h60.8v14.3h-77.06V686.44zm94.71 0h87.51v14.7H740.9v36.45h66.27v13.9H740.9v40.7h72.89v14.3h-88.74V686.43zm44.37 0zm76.48 81.31q.57 10.22 4.82 16.6 8.09 11.92 28.52 11.92 9.15 0 16.67-2.61 14.54-5.07 14.54-18.14 0-9.8-6.13-13.98-6.2-4.08-19.45-7.1l-16.26-3.68q-15.93-3.6-22.55-7.93-11.44-7.52-11.44-22.47 0-16.18 11.2-26.56 11.19-10.38 31.7-10.38 18.88 0 32.03 9.16 13.24 9.07 13.24 29.09H907.5q-1.22-9.64-5.23-14.8-7.43-9.39-25.25-9.39-14.38 0-20.67 6.05-6.3 6.04-6.3 14.05 0 8.83 7.36 12.91 4.82 2.62 21.82 6.54l16.83 3.84q12.18 2.78 18.8 7.6 11.44 8.42 11.44 24.44 0 19.93-14.55 28.51-14.46 8.58-33.67 8.58-22.39 0-35.05-11.44-12.67-11.35-12.42-30.8h15.28zm32.85-84.57z"/>
  <path stroke="#000" stroke-width="5" fill="none" d="M76.2 152.49h695.02v695.02H76.2z"/>
</svg>
