<!-- FYI: https://github.com/actions -->
<!-- NOTE: https://image.online-convert.com/convert-to-svg -->
<!-- NOTE: https://jakearchibald.github.io/svgomg/ -->
<svg xmlns="http://www.w3.org/2000/svg" version="1.0" viewBox="0 0 200 200">
  <path d="M27 2C15.7 6.1 5.7 16.3 1.9 27.8c-3 9.1-2.4 23.3 1.3 31.4 4.7 10.2 14.3 18.7 25.1 22.4l4.6 1.6.3 33.6.3 33.7 2.6 5.5c4.9 10.4 15.1 17.9 25.7 18.8 4.3.4 5.2.8 5.2 2.4 0 6.5 7 15.7 15.2 19.7 8.1 4.1 18.6 4.4 26.3.7 10.7-5.1 16.4-14.4 16.5-26.7 0-6.5-.4-8.5-3.1-13.7-8.1-16.2-28.8-21-43.8-10.2-4.8 3.5-9.8 10.8-10.7 15.7-.5 2.8-1.1 3.3-3.3 3.3-4.1 0-12.7-4.7-16.1-8.8-5.2-6.3-6-11.1-6-34.9v-21.4l3.5 2.6c4.1 3.2 11.3 5.5 17 5.5 4 0 4.3.2 4.9 3.3 1.6 8.4 10.4 17.4 19.9 20.2 6.2 1.9 9.8 1.9 16.5.2 9.6-2.6 17.5-10.2 20.4-20l1.1-3.7h16.5l.6 3.3c.9 4.9 5.9 12.2 10.7 15.7 15 10.8 35.7 6 43.8-10.2 4.1-8.1 4.4-18.6.7-26.3-5.1-10.7-14.4-16.4-26.7-16.5-6.5 0-8.5.4-13.7 3.1C149 82.2 142 91.3 142 98c0 1.9-.6 2-8.5 2-7.4 0-8.5-.2-8.5-1.8 0-3.2-4.8-11.7-8.6-15.4-5.9-5.6-11.5-7.8-20.5-7.8-6.5 0-8.5.4-13.8 3.1C75 81.6 69.5 88 67.7 94.7L66.6 99h-5c-6.5 0-12.7-3.6-16.1-9.4-1.4-2.3-2.5-4.5-2.5-4.8 0-.3 2.8-1.1 6.3-1.8 18-3.5 30.7-16.6 33.9-34.8 3-17.8-6.6-36.4-23.1-44.5C54.2.8 52.6.5 43 .3 34.6.1 31.4.5 27 2zm28.8 10.4c28.3 14.4 22.5 55.7-8.6 61.4C23 78.2 2.4 53.5 11.1 30.5 14 22.6 22.3 14.2 30 11.2c7.7-3.1 18.4-2.6 25.8 1.2zm49.3 73.9c14.6 7.7 14.4 28.3-.4 35.8-11.1 5.7-25.1-.7-28.2-12.9-4.4-16.9 13.3-31 28.6-22.9zm75 0c14.6 7.7 14.4 28.3-.4 35.8-11.1 5.7-25.1-.7-28.2-12.9-4.4-16.9 13.3-31 28.6-22.9zM105 153c10 5.1 13.9 17.2 8.7 27.1-7.7 14.6-28.3 14.4-35.8-.4-5.7-11 .7-25.1 12.8-28.2 5.4-1.4 9.2-1 14.3 1.5z"/>
  <path d="M27.2 22.3c-2.1 2.2-2.2 3.3-2.2 19.3 0 13.6.3 17.4 1.5 19.1 2.1 3 7.4 3.9 11.3 1.9 6-3.1 22.7-13.9 24-15.4 1.8-2.4 1.5-9.6-.5-11.4-1-.9-6.9-4.8-13.1-8.7-12.8-8-17.1-9-21-4.8zm19.2 15l6.9 4.5-4.4 2.7c-2.4 1.6-6.8 4.3-9.6 6.1L34 54V29.9l2.8 1.5c1.5.8 5.8 3.5 9.6 5.9zM96.6 98.9l-4.9 5-2.8-2.1c-2.4-1.8-3.3-2-5.4-1-4.1 1.9-3.4 6.1 2 11.1 2.4 2.2 5.2 4.1 6.1 4.1 2.5 0 17.4-15 17.4-17.5 0-2.8-1.8-4.5-5-4.5-1.8 0-4.1 1.5-7.4 4.9zM171.6 98.9l-4.9 5-2.8-2.1c-2.4-1.8-3.3-2-5.4-1-4.1 1.9-3.4 6.1 2 11.1 2.4 2.2 5.2 4.1 6.1 4.1 2.5 0 17.4-15 17.4-17.5 0-2.8-1.8-4.5-5-4.5-1.8 0-4.1 1.5-7.4 4.9z"/>
</svg>
