<!-- FYI: https://github.com/jondot/hygen/blob/master/hygen.io/static/img/hygen.svg -->
<!-- NOTE: https://jakearchibald.github.io/svgomg/ -->
<svg xmlns="http://www.w3.org/2000/svg" viewBox="0 0 292 292">
  <g fill="none" fill-rule="evenodd">
    <g transform="translate(1 1)">
      <rect width="286" height="286" x="1" y="1" fill="#F722B1" rx="64"/>
      <path fill="#FFF06C" d="M174 205h68v20h-68z"/>
      <path fill="#BCFE25" d="M174 235h32v20h-32z"/>
      <path fill="#FFF" d="M212 235h12v20h-12z"/>
      <path fill="#C9C9C9" d="M64 0h162a64 64 0 0164 64v81L145 290H64a64 64 0 01-64-64V64A64 64 0 0164 0z"/>
      <g fill="#FFF">
        <path d="M370 434H211h159zM147 290.5V211a64 64 0 0164-64h79.5L147 290.5zM434 211v159-159z"/>
      </g>
    </g>
    <g fill="#E0E0E0">
      <path d="M75 51h98v20H75zM183 51h35v20h-35zM47 51h18v20H47zM75 206h70v20H75zM47 206h18v20H47zM105 236h40v20h-40zM47 236h48v20H47zM102 84h55v20h-55zM47 84h44v20H47zM47 118h67v20H47z"/>
    </g>
  </g>
</svg>
