<!-- FYI: https://github.com/semantic-release/semantic-release.github.io/blob/master/logo.png -->
<!-- NOTE: https://jakearchibald.github.io/svgomg/ -->
<svg xmlns="http://www.w3.org/2000/svg" version="1.0" viewBox="0 0 530 500">
  <path d="M157.5 62.7L50 125.2l.2 124.9.3 125 107.3 62.4L265 499.8l107.3-62.3 107.2-62.4.3-124.9.2-125-107.5-62.5L265 .2 157.5 62.7zm147.7-20.6c21.1 12.2 38.6 22.5 39 22.8.4.4-1.7 4.3-4.8 8.6-7.6 11-13.8 24.3-16.3 35-3.5 15.5-11.1 64.6-11.1 71.8 0 1.2 4.6-4.7 11.1-14.4 12.8-18.8 25.5-35.8 32.9-44.1 5.8-6.5 19.3-15.9 32-22.3l8.5-4.3 33.8 19.7 33.7 19.6v86h-39.5l-13.8 4.7c-7.6 2.6-25.4 9.3-39.5 15l-25.7 10.3 7.5.7c4.1.4 15.8 1.4 26 2.3 42.4 3.5 51.4 6 75.3 20.9l9.7 6v85.1l-21.7 12.7c-12 6.9-28.4 16.4-36.4 21.1l-14.6 8.5-5.6-11.2c-7.2-14-12.5-21.2-23-30.5-12.4-11.1-48.7-40.1-54.4-43.4-.6-.4 2.6 7 7.1 16.5 15.9 32.9 22.6 50 24.5 61.8 1.2 7 1.5 28.9.5 33.7-.5 2.7-4 5-38 24.8L265 481.2l-39.3-22.8c-21.5-12.5-39.3-22.8-39.5-22.9-.1-.1 2.3-4 5.4-8.6 10.7-15.7 13.8-24.8 18.8-54.4 1.4-8.3 3.5-22 4.6-30.5 1.1-8.5 2.3-17.1 2.6-19 .4-2.8-1.9 0-11.5 14.3-15.1 22.2-25.7 36.3-33.5 44.6-6.2 6.5-18 14.9-29.7 21l-6.6 3.5-35.1-20.5L66 365.5v-85.2l18.3.1c17.1.1 18.8-.1 27.4-2.6 10.8-3.3 36.9-13 57.1-21.4 17-7 17.9-6.4-14.3-8.8-22.3-1.7-38.2-3.7-48-6.2-7.8-1.9-20.2-7.9-31.5-15.1l-9-5.8v-86l35.8-20.8 35.7-20.8 2.9 6.3c6.6 14.6 13.1 24.1 23.3 33.8 9.8 9.4 31.9 27.7 48.3 40 4.7 3.5 9.1 6.8 9.9 7.4.7.6-2.3-6.1-6.7-14.9-8.9-17.8-19.1-41-22.9-51.9-3.3-9.5-4.9-27.8-3.7-41l.9-9.9L227 40.9c20.6-12 38.1-21.7 38.7-21.4.7.2 18.5 10.4 39.5 22.6z"/>
  <path d="M254.4 201.5c-25.4 5.5-42.7 30.9-38.5 56.2a49.97 49.97 0 0042.1 41.4c32.2 5 61.1-23.9 56.1-56.1-3.2-20.9-18.5-37.2-39-41.6-8-1.7-12.7-1.7-20.7.1zm26.4 17.5c7.2 3.8 11.9 8.7 15.9 16.2 2.5 4.7 2.8 6.4 2.8 14.8 0 8.9-.2 9.9-3.4 15.8-3.9 7.2-8.8 12-16.3 15.9-4.7 2.5-6.3 2.8-14.8 2.8s-10.1-.3-14.8-2.8c-7.5-3.9-12.4-8.7-16.3-15.9-3.2-5.9-3.4-6.9-3.4-15.8 0-8.4.3-10.1 2.8-14.7 7.2-13.8 18.5-20.6 33.2-20 6.8.3 8.9.8 14.3 3.7z"/>
</svg>
